PathFileType	4	(X/Y/Z)	E:\Marcel_BSc\Ayumi_22_01_2025\22-01-2025\sumo_dl_2.trc
DataRate	CameraRate	NumFrames	NumMarkers	Units	OrigDataRate	OrigDataStartFrame	OrigNumFrames
200.0	200.0	6	47	mm	200.0	1	2294	
Frame#	Time	LBHD			FHD			RBHD			RBAR			LBAR			RSACR			LSACR			USACR			C7			CLAV			T10			RSHO			LSHO			LTHI1			LTHI3			LTHI2			LTIB1			LTIB2			LTIB3			LMMAL			LLMAL			LHEE			LMT1			LMT5			LMT3			RTHI1			RTHI2			RTHI3			RTIB1			RTIB3			RTIB2			RLMAL			RMMAL			RHEE			RMT5			RMT1			RMT3			LDUPA			LMUPA			LUUPA			LRAD			RUL			RRAD			RUFIN			RMUPA			RDUPA			RUUPA			
		X1	Y1	Z1	X2	Y2	Z2	X3	Y3	Z3	X4	Y4	Z4	X5	Y5	Z5	X6	Y6	Z6	X7	Y7	Z7	X8	Y8	Z8	X9	Y9	Z9	X10	Y10	Z10	X11	Y11	Z11	X12	Y12	Z12	X13	Y13	Z13	X14	Y14	Z14	X15	Y15	Z15	X16	Y16	Z16	X17	Y17	Z17	X18	Y18	Z18	X19	Y19	Z19	X20	Y20	Z20	X21	Y21	Z21	X22	Y22	Z22	X23	Y23	Z23	X24	Y24	Z24	X25	Y25	Z25	X26	Y26	Z26	X27	Y27	Z27	X28	Y28	Z28	X29	Y29	Z29	X30	Y30	Z30	X31	Y31	Z31	X32	Y32	Z32	X33	Y33	Z33	X34	Y34	Z34	X35	Y35	Z35	X36	Y36	Z36	X37	Y37	Z37	X38	Y38	Z38	X39	Y39	Z39	X40	Y40	Z40	X41	Y41	Z41	X42	Y42	Z42	X43	Y43	Z43	X44	Y44	Z44	X45	Y45	Z45	X46	Y46	Z46	X47	Y47	Z47	
1	-0.005	165.35472	1514.1337	-887.74438	149.97115	1533.4216	-947.65833	190.19455	1505.2269	-1020.275	247.15953	236.5452	-2034.605	274.19409	250.20502	185.65546	389.00354	888.1004	-995.94965	392.66672	887.95874	-924.39868	381.69864	899.00488	-958.2865	338.76306	1321.3274	-944.64624	196.08891	1259.1516	-960.41028	363.22037	1046.2539	-957.06	275.45248	1334.7662	-1089.8324	257.69403	1322.504	-809.59186	343.17438	584.28552	-691.68201	345.45279	518.67792	-682.45758	306.54565	538.77081	-658.33337	334.45053	245.70708	-543.54413	372.32098	231.27628	-574.54913	349.58038	183.36664	-536.95178	295.13864	68.685287	-555.92413	354.02011	72.615456	-511.65884	357.35303	31.56039	-561.58801	207.43143	45.529285	-436.47922	275.57275	27.720257	-391.75647	228.84772	41.036613	-409.53159	338.03354	575.68799	-1215.1404	300.46762	534.39734	-1250.6685	338.80447	512.25684	-1225.835	330.5582	278.19635	-1353.9788	345.95132	214.5822	-1359.145	367.32288	264.30243	-1321.5787	354.60345	73.527184	-1390.075	280.35675	68.634743	-1364.9419	355.95703	29.59304	-1341.6672	287.37283	26.006691	-1520.6549	226.80301	35.894714	-1492.4767	250.41336	33.003761	-1512.7666	333.6427	1242.8918	-622.72516	305.89655	1284.0414	-624.4635	317.28595	1289.6449	-685.38098	256.02924	1266.4464	-293.83594	340.46103	1296.9659	-1591.0999	282.134	1319.3497	-1593.5383	285.95419	1323.5481	-1666.0963	349.36819	1295.3219	-1195.4668	353.08508	1288.3435	-1257.1021	366.02567	1249.4939	-1189.5605
2	0	165.36951	1514.1118	-887.70081	149.97137	1533.5242	-947.53613	190.26215	1505.2437	-1020.198	247.20908	236.55743	-2034.5977	274.24307	250.21619	185.65889	389.00372	888.13214	-995.95166	392.6727	887.96429	-924.40436	381.70593	899.01343	-958.28491	338.7872	1321.3622	-944.54266	196.13588	1259.1765	-960.36047	363.26422	1046.2561	-957.01599	275.55136	1334.7968	-1089.7635	257.68942	1322.4932	-809.49329	343.30658	584.31995	-691.69489	345.50543	518.70819	-682.52118	306.6337	538.7868	-658.36176	334.64203	246.78049	-542.63977	372.35754	231.25758	-574.5697	349.56137	183.37209	-537.01013	295.15771	68.684303	-555.92035	354.02826	72.61834	-511.63669	357.36008	31.559031	-561.58441	207.43216	45.535404	-436.49091	275.46017	27.748772	-391.72394	228.83617	41.058338	-409.53696	337.4194	576.54797	-1214.749	300.46872	534.3988	-1250.6542	338.82629	512.25671	-1225.8246	330.60181	278.19226	-1353.9585	345.94992	214.55379	-1359.1583	367.33643	264.27072	-1321.5775	354.61481	73.515427	-1390.0973	280.36865	68.619614	-1364.9565	355.94995	29.592688	-1341.682	287.37766	26.001163	-1520.6591	226.7953	35.900085	-1492.4775	250.40645	33.02346	-1512.7733	333.56891	1242.7983	-622.63092	305.80814	1283.958	-624.35345	317.24759	1289.5918	-685.27484	255.77739	1266.2145	-293.77567	340.75079	1296.9908	-1591.0421	282.82184	1319.0729	-1593.4277	286.32507	1323.551	-1666.036	348.94269	1295.6981	-1195.5165	353.25284	1288.4041	-1257.0005	366.12299	1249.4933	-1189.4545
3	0.005	165.38844	1514.1144	-887.63391	150.07751	1533.3789	-947.61505	190.31171	1505.2935	-1020.1038	247.26224	236.55028	-2034.5986	274.29453	250.21571	185.6599	389.00034	888.14014	-995.95258	392.66272	887.97992	-924.40515	381.71936	899.02124	-958.2821	338.84039	1321.3806	-944.4386	196.16989	1259.2048	-960.30847	363.28638	1046.2677	-956.98175	275.64087	1334.8522	-1089.6893	257.72275	1322.4774	-809.37537	343.34351	584.31006	-691.72778	345.59634	518.70654	-682.54938	306.70236	538.78241	-658.37579	334.74146	246.83771	-542.66473	372.42093	231.25591	-574.56409	349.63239	183.35849	-536.97278	295.16241	68.69175	-555.89069	354.01501	72.625153	-511.63589	357.35477	31.561337	-561.57599	207.41177	45.549995	-436.4823	275.59787	27.749649	-391.80255	228.83252	41.070858	-409.55627	338.03464	575.73889	-1215.1367	300.46753	534.47217	-1250.605	338.83945	512.27515	-1225.8239	330.6344	278.19827	-1353.9312	345.96265	214.57037	-1359.1531	367.34656	264.25815	-1321.5713	354.61823	73.513672	-1390.0908	280.35318	68.628914	-1364.9634	355.94226	29.600767	-1341.6912	287.37027	26.019146	-1520.666	226.79529	35.914131	-1492.4906	250.39944	33.032398	-1512.7732	333.48404	1242.719	-622.534	305.7338	1283.8851	-624.24854	317.1926	1289.559	-685.1571	255.52278	1266.0026	-293.72018	341.06448	1296.9769	-1590.9468	283.01654	1319.2679	-1592.9221	286.67596	1323.5603	-1665.9694	349.03906	1295.7087	-1195.4227	353.33435	1288.4172	-1256.9031	366.20541	1249.5042	-1189.3578
4	0.01	165.4126	1514.1071	-887.60364	150.11751	1533.3911	-947.56287	190.40637	1505.311	-1020.0458	247.30089	236.54535	-2034.5972	274.35138	250.22697	185.6656	389.01965	888.13049	-995.94696	392.66675	887.98651	-924.40381	381.7168	899.03931	-958.28998	338.8808	1321.3846	-944.34381	196.21854	1259.2301	-960.25397	363.31442	1046.2686	-956.92401	275.73837	1334.9086	-1089.6118	257.71906	1322.4666	-809.29358	342.84964	583.74762	-691.95685	345.65753	518.6806	-682.60266	306.78525	538.77692	-658.39233	334.55875	245.72414	-543.59283	372.42017	231.24048	-574.59113	349.68451	183.36996	-536.9903	295.15265	68.706024	-555.89685	354.01285	72.642624	-511.62677	357.34396	31.58112	-561.57593	207.4153	45.557697	-436.49084	275.28979	27.795591	-391.67026	228.80017	41.045586	-409.53278	338.03436	575.76593	-1215.1133	300.46729	534.39777	-1250.6344	338.85226	512.28571	-1225.8541	330.63708	278.19141	-1353.9287	346.00589	214.57701	-1359.1207	367.38074	264.28796	-1321.5121	354.62881	73.545059	-1390.0833	280.35272	68.608643	-1364.9635	355.94366	29.610813	-1341.6913	287.36679	26.019213	-1520.6782	226.7915	35.923954	-1492.4982	250.40848	33.046436	-1512.7922	333.40005	1242.6349	-622.43842	305.64966	1283.7964	-624.14685	317.1431	1289.5	-685.05133	255.27632	1265.8174	-293.66284	341.36508	1296.9601	-1590.8608	283.31982	1319.2213	-1593.4004	287.02914	1323.5701	-1665.8937	349.15121	1295.7111	-1195.3231	353.40256	1288.4459	-1256.8142	366.30536	1249.5055	-1189.256
5	0.015	165.44293	1514.1672	-887.53424	150.12439	1533.5289	-947.42688	190.43896	1505.3835	-1019.8854	247.37627	236.53709	-2034.611	274.38626	250.21085	185.6618	389.03625	888.14429	-995.94659	392.66183	888.01251	-924.39832	381.74207	899.02789	-958.2821	338.89352	1321.4419	-944.22198	196.26141	1259.257	-960.20374	363.33896	1046.2697	-956.8858	276.06128	1334.8174	-1089.6233	257.71207	1322.4325	-809.20288	342.92563	583.75195	-692.03986	345.73666	518.71179	-682.67963	306.89835	538.76581	-658.40735	334.62567	245.69699	-543.59552	372.48764	231.22618	-574.62079	349.66238	183.36543	-537.03778	295.15552	68.737534	-555.8996	354.02948	72.650627	-511.61737	357.3591	31.561714	-561.56549	207.4211	45.556152	-436.48831	275.53452	27.77953	-391.74771	228.80923	41.069603	-409.54092	338.05331	575.77637	-1215.1464	300.48599	534.46252	-1250.6207	338.89157	512.30237	-1225.844	330.70111	278.17166	-1353.8994	346.03116	214.57472	-1359.1042	367.41956	264.26767	-1321.5103	354.6452	73.526543	-1390.094	280.36795	68.619972	-1364.9857	355.96231	29.622078	-1341.6941	287.36676	26.026354	-1520.6797	226.7924	35.922462	-1492.5117	250.39473	33.048359	-1512.7996	333.32199	1242.5596	-622.33191	305.56821	1283.7273	-624.05646	317.09192	1289.4617	-684.93781	255.03033	1265.6241	-293.59918	341.69382	1296.8582	-1590.7334	283.40271	1319.3408	-1593.286	287.36981	1323.5634	-1665.8341	349.25684	1295.7307	-1195.2301	353.5224	1288.4413	-1256.7181	366.38983	1249.519	-1189.1327
6	0.02	165.46523	1514.2224	-887.48431	150.11189	1533.7156	-947.25659	190.46072	1505.4878	-1019.7314	247.43028	236.53685	-2034.6449	274.44437	250.20728	185.65961	389.04767	888.15869	-995.95074	392.67004	888.01978	-924.39435	381.76892	899.03638	-958.28729	338.9437	1321.4564	-944.12854	196.29971	1259.292	-960.13214	363.39282	1046.2766	-956.82458	276.26382	1334.4669	-1089.4965	257.72733	1322.428	-809.10846	343.03839	583.76965	-692.08484	345.79883	518.65308	-682.74225	306.98114	538.76495	-658.44958	334.65668	245.69067	-543.62958	372.52258	231.19592	-574.66992	349.74146	183.34532	-537.02686	295.18298	68.727791	-555.88727	354.04074	72.623528	-511.61487	357.36993	31.561237	-561.56732	207.41089	45.553303	-436.46634	275.39282	27.773539	-391.67902	228.82416	41.054863	-409.53098	338.05017	575.80963	-1215.1407	300.48221	534.43958	-1250.6216	338.9288	512.30042	-1225.8655	330.72485	278.1705	-1353.9005	346.04239	214.55902	-1359.1097	367.46481	264.26816	-1321.4803	354.65121	73.529083	-1390.1118	280.38083	68.631386	-1364.9854	355.95886	29.602543	-1341.7089	287.38287	26.031553	-1520.6986	226.79257	35.9324	-1492.5297	250.39998	33.062336	-1512.8093	333.25668	1242.4641	-622.23975	305.50708	1283.6536	-623.96191	317.08798	1289.416	-684.81421	254.79054	1265.4353	-293.54373	341.98865	1296.9186	-1590.63	283.95074	1319.1783	-1593.2084	287.69641	1323.5411	-1665.7811	349.37869	1295.748	-1195.1316	353.7431	1288.4298	-1256.6165	366.4884	1249.5381	-1189.0297
